<svg width="453" height="388" viewBox="0 0 453 388" fill="none" xmlns="http://www.w3.org/2000/svg">
<path d="M402.039 354.178C402.039 354.178 421.931 294.121 403.747 269.147C385.563 244.173 371.149 233.152 380.259 213.015C389.37 192.878 385.314 159.961 361.237 150.076C337.16 140.191 348.338 102.974 321.681 81.6053C295.024 60.2363 273.29 69.9013 260.51 43.5423C249.285 20.3923 225.999 -1.42971 202.695 21.0053C197.586 25.9233 194.157 32.3363 192.376 39.2743C190.512 46.5303 184.003 59.0943 162.021 71.6583C128.202 90.9883 141.611 103.446 128.028 125.772C114.444 148.098 70.8976 136.864 54.5586 179.694C38.2206 222.524 73.4826 236.901 70.6216 262.505C67.7606 288.109 50.8216 302.071 61.1406 353.472" stroke="#E5C2A5" stroke-miterlimit="10"/>
<path d="M411.653 354.829C411.653 354.829 434.922 288.383 415.303 263.147C395.684 237.911 380.132 226.774 389.961 206.425C399.791 186.077 395.415 152.814 369.437 142.825C343.459 132.836 355.52 95.2294 326.759 73.6354C297.998 52.0424 278.747 54.1064 264.958 27.4714C252.847 4.07837 223.525 -10.2706 198.382 12.3994C192.87 17.3694 189.17 23.8494 187.248 30.8604C185.237 38.1924 178.215 50.8884 154.497 63.5844C118.009 83.1174 132.476 95.7064 117.82 118.266C103.164 140.826 62.6514 133.089 44.5334 170.876C24.3294 213.013 55.7114 229.952 52.6254 255.825C49.5384 281.698 41.7814 302.237 52.9154 354.178" stroke="#E5C2A5" stroke-miterlimit="10"/>
<path d="M205.885 34.4012C200.895 39.3192 197.546 45.7321 195.806 52.6701C193.986 59.9261 187.628 72.4901 166.158 85.0541C133.126 104.384 146.223 116.842 132.956 139.168C119.688 161.494 81.8927 144.367 65.9347 187.197C49.9767 230.027 86.7697 249.36 83.9757 274.964C81.1817 300.568 59.2157 302.07 69.2947 353.471H402.261C402.261 353.471 420.022 307.517 402.261 282.543C384.5 257.569 370.421 246.548 379.32 226.411C388.218 206.274 384.257 173.357 360.74 163.472C337.223 153.587 348.141 116.37 322.105 95.0012C296.068 73.6322 274.84 83.2971 262.357 56.9381C251.391 33.7891 228.647 11.9672 205.885 34.4012Z" fill="#F7E4D2"/>
<path d="M207.197 46.4403C202.424 51.1443 199.221 57.2793 197.556 63.9143C195.815 70.8543 189.734 82.8723 169.197 94.8893C137.602 113.378 150.13 125.294 137.439 146.649C124.748 168.004 88.5968 151.622 73.3338 192.588C58.0698 233.554 93.2618 252.046 90.5898 276.537C87.9168 301.027 66.9068 302.464 76.5478 351.628H395.027C395.027 351.628 412.015 307.673 395.027 283.786C378.039 259.899 364.573 249.357 373.084 230.096C381.595 210.835 377.807 179.35 355.313 169.895C332.819 160.44 343.263 124.843 318.359 104.403C293.455 83.9643 273.151 93.2083 261.211 67.9963C250.723 45.8553 228.968 24.9823 207.197 46.4403Z" stroke="white" stroke-miterlimit="10"/>
<path d="M330.089 167.818C328.124 166.677 325.545 167.503 325.126 166.863C324.707 166.224 327.241 164.249 328.056 162.177C328.871 160.105 327.954 154.735 324.616 157.264C321.277 159.793 321.126 164.103 321.126 164.103C321.126 164.103 321.072 164.34 321.028 164.735C319.895 162.07 320.504 158.391 320.51 158.35C320.544 158.15 320.411 157.96 320.211 157.925C320.002 157.89 319.82 158.025 319.787 158.225C319.759 158.382 319.273 161.33 319.995 163.986C318.24 161.962 315.681 160.731 315.54 160.665C315.358 160.579 315.138 160.656 315.051 160.84C314.964 161.023 315.042 161.243 315.226 161.329C315.265 161.348 318.906 163.1 320.329 165.734C319.89 165.416 319.583 165.252 319.583 165.252C319.583 165.252 316.224 162.551 312.129 163.429C308.034 164.307 311.499 168.509 313.599 169.245C315.699 169.981 318.848 169.35 319.058 170.086C319.268 170.821 316.958 172.236 316.538 174.471C316.118 176.705 318.743 179.023 320.213 179.125C321.545 179.218 323.558 174.746 323.536 171.404C326.113 173.437 330.446 174.666 331.21 173.644C332.092 172.462 332.054 168.959 330.089 167.818Z" fill="#DBA291"/>
<path d="M112.741 202.433C112.373 200.602 110.462 199.464 110.627 198.857C110.792 198.251 113.385 198.736 115.102 198.111C116.819 197.485 119.622 193.998 116.25 193.319C112.878 192.64 110.146 194.892 110.146 194.892C110.146 194.892 109.971 194.988 109.704 195.175C110.726 193.027 113.319 191.4 113.348 191.381C113.49 191.293 113.534 191.107 113.446 190.965C113.354 190.818 113.172 190.779 113.031 190.867C112.919 190.936 110.842 192.24 109.602 194.13C109.891 191.948 109.255 189.703 109.219 189.58C109.173 189.421 109.005 189.328 108.845 189.374C108.685 189.42 108.593 189.588 108.64 189.748C108.65 189.782 109.554 192.977 108.709 195.287C108.665 194.843 108.599 194.565 108.599 194.565C108.599 194.565 108.431 191.027 105.663 188.983C102.895 186.94 102.197 191.36 102.888 193.053C103.579 194.746 105.68 196.342 105.342 196.872C105.004 197.402 102.877 196.749 101.275 197.707C99.6733 198.664 99.6773 201.542 100.414 202.502C101.082 203.372 104.926 202.179 106.969 200.346C107.122 203.039 108.724 206.375 109.769 206.29C110.977 206.193 113.109 204.264 112.741 202.433Z" fill="#DBA291"/>
<path d="M225.171 73.9142C224.803 72.0832 222.892 70.9452 223.057 70.3382C223.222 69.7322 225.815 70.2172 227.532 69.5922C229.249 68.9672 232.052 65.4792 228.68 64.8002C225.308 64.1212 222.576 66.3742 222.576 66.3742C222.576 66.3742 222.401 66.4702 222.134 66.6572C223.156 64.5092 225.749 62.8822 225.778 62.8632C225.92 62.7752 225.964 62.5892 225.876 62.4472C225.784 62.3002 225.602 62.2612 225.461 62.3492C225.349 62.4182 223.272 63.7222 222.032 65.6122C222.321 63.4302 221.685 61.1842 221.649 61.0622C221.603 60.9032 221.435 60.8102 221.275 60.8562C221.115 60.9022 221.023 61.0702 221.07 61.2302C221.08 61.2642 221.984 64.4592 221.139 66.7692C221.095 66.3262 221.029 66.0472 221.029 66.0472C221.029 66.0472 220.861 62.5092 218.093 60.4652C215.325 58.4222 214.627 62.8422 215.318 64.5352C216.009 66.2282 218.11 67.8242 217.772 68.3542C217.434 68.8832 215.307 68.2312 213.705 69.1892C212.103 70.1462 212.107 73.0232 212.844 73.9842C213.512 74.8542 217.356 73.6612 219.399 71.8282C219.552 74.5212 221.154 77.8572 222.199 77.7722C223.407 77.6752 225.539 75.7452 225.171 73.9142Z" fill="#DBA291"/>
<path d="M174.134 123.567C173.78 124.044 173.107 124.144 172.63 123.79C172.153 123.436 172.053 122.762 172.407 122.285C172.761 121.808 173.434 121.708 173.911 122.062C174.388 122.415 174.488 123.089 174.134 123.567Z" fill="white"/>
<path d="M176.908 118.983C176.554 119.46 175.881 119.56 175.404 119.206C174.927 118.852 174.827 118.178 175.181 117.701C175.535 117.224 176.208 117.124 176.685 117.478C177.162 117.832 177.262 118.506 176.908 118.983Z" fill="white"/>
<path d="M180.134 126.214C179.78 126.691 179.107 126.791 178.63 126.437C178.153 126.083 178.053 125.409 178.407 124.932C178.761 124.455 179.434 124.355 179.911 124.709C180.389 125.063 180.488 125.737 180.134 126.214Z" fill="white"/>
<path d="M318.857 136.176C318.503 136.653 317.83 136.753 317.353 136.399C316.876 136.045 316.776 135.371 317.13 134.894C317.484 134.417 318.157 134.317 318.634 134.671C319.111 135.025 319.211 135.698 318.857 136.176Z" fill="white"/>
<path d="M321.63 131.592C321.276 132.069 320.603 132.169 320.126 131.815C319.649 131.461 319.549 130.787 319.903 130.31C320.257 129.833 320.93 129.733 321.407 130.087C321.884 130.441 321.984 131.115 321.63 131.592Z" fill="white"/>
<path d="M324.857 138.822C324.503 139.299 323.83 139.399 323.353 139.045C322.876 138.691 322.776 138.017 323.13 137.54C323.484 137.063 324.157 136.963 324.634 137.317C325.111 137.671 325.211 138.345 324.857 138.822Z" fill="white"/>
<path d="M267.814 92.5362C267.46 93.0132 266.787 93.1132 266.31 92.7592C265.833 92.4052 265.733 91.7312 266.087 91.2542C266.441 90.7772 267.114 90.6772 267.591 91.0312C268.068 91.3842 268.168 92.0582 267.814 92.5362Z" fill="white"/>
<path d="M270.587 87.9522C270.233 88.4292 269.56 88.5292 269.083 88.1752C268.606 87.8212 268.506 87.1472 268.86 86.6702C269.214 86.1932 269.887 86.0932 270.364 86.4472C270.841 86.8012 270.941 87.4752 270.587 87.9522Z" fill="white"/>
<path d="M273.814 95.1836C273.46 95.6606 272.787 95.7606 272.31 95.4066C271.833 95.0526 271.733 94.3786 272.087 93.9016C272.441 93.4246 273.114 93.3246 273.591 93.6786C274.068 94.0316 274.168 94.7056 273.814 95.1836Z" fill="white"/>
<path d="M281.718 155.165C281.26 154.786 281.196 154.108 281.574 153.65C281.952 153.192 282.63 153.127 283.088 153.506C283.546 153.884 283.61 154.563 283.232 155.021C282.854 155.478 282.176 155.543 281.718 155.165Z" fill="white"/>
<path d="M286.148 158.174C285.69 157.796 285.626 157.117 286.004 156.659C286.382 156.201 287.06 156.136 287.518 156.515C287.976 156.893 288.04 157.572 287.662 158.03C287.283 158.488 286.606 158.552 286.148 158.174Z" fill="white"/>
<path d="M278.765 161.022C278.307 160.644 278.243 159.965 278.621 159.507C278.999 159.049 279.677 158.984 280.135 159.363C280.593 159.741 280.657 160.42 280.279 160.878C279.9 161.336 279.223 161.401 278.765 161.022Z" fill="white"/>
<path d="M126.898 177.759C126.898 178.515 126.286 179.127 125.531 179.127C124.776 179.127 124.164 178.515 124.164 177.759C124.164 177.004 124.776 176.391 125.531 176.391C126.286 176.391 126.898 177.003 126.898 177.759Z" fill="white"/>
<path d="M310.099 107.24C310.099 108.178 309.339 108.939 308.401 108.939C307.463 108.939 306.703 108.178 306.703 107.24C306.703 106.302 307.463 105.541 308.401 105.541C309.339 105.541 310.099 106.302 310.099 107.24Z" fill="white"/>
<path d="M192.774 160.192C192.774 161.13 192.014 161.891 191.077 161.891C190.139 161.891 189.379 161.13 189.379 160.192C189.379 159.254 190.139 158.493 191.077 158.493C192.014 158.493 192.774 159.254 192.774 160.192Z" fill="white"/>
<path d="M225.228 49.246C225.228 49.818 224.764 50.282 224.192 50.282C223.62 50.282 223.156 49.818 223.156 49.246C223.156 48.674 223.62 48.21 224.192 48.21C224.764 48.21 225.228 48.674 225.228 49.246Z" fill="white"/>
<path d="M304.463 201.461C304.463 202.312 303.774 203.002 302.923 203.002C302.073 203.002 301.383 202.312 301.383 201.461C301.383 200.61 302.072 199.92 302.923 199.92C303.774 199.92 304.463 200.61 304.463 201.461Z" fill="white"/>
<path d="M203.471 84.2676C203.471 85.1186 202.782 85.8086 201.931 85.8086C201.081 85.8086 200.391 85.1186 200.391 84.2676C200.391 83.4166 201.08 82.7266 201.931 82.7266C202.782 82.7266 203.471 83.4166 203.471 84.2676Z" fill="white"/>
<path d="M33.7271 342.304H444.802C447.829 342.304 448.661 346.473 445.861 347.624C418.366 358.919 345.452 384.508 243.264 387.43C148.239 390.147 68.8461 365.417 32.0481 351.457C27.1301 349.592 28.4681 342.304 33.7271 342.304Z" fill="#F7E4D2"/>
<path d="M170.746 256.196C169.837 239.958 152.82 236.694 151.118 232.653C149.417 228.612 146.669 220.347 134.416 216.449C122.163 212.551 114.539 219.756 107.673 215.344C100.807 210.932 94.6972 207.284 86.5132 212.833C78.3292 218.382 72.5302 216.342 60.7152 215.004C48.9002 213.666 39.5172 225.061 39.5172 225.061C34.8962 229.3 39.3542 234.668 50.2482 237.301C65.6312 241.019 61.2382 251.01 69.4382 255.059C77.6382 259.108 87.3832 255.096 93.5632 259.996C99.7422 264.896 99.2762 273.782 106.924 275.868C114.572 277.954 123.594 272.875 127.97 275.881C132.346 278.887 134.73 287.794 139.952 290.87C145.175 293.946 159.955 294.707 159.955 294.707L163.525 293.844C163.525 293.844 171.655 272.434 170.746 256.196Z" fill="#B9BC7E"/>
<path d="M161.099 288.735C161.099 288.735 157.242 255.589 134.447 240.491C111.652 225.393 74.2676 225.033 62.9346 224.407C51.6016 223.781 51.6016 223.781 51.6016 223.781C51.6016 223.781 97.3506 220.871 120.035 230.097C151.189 242.767 160.065 263.465 161.099 288.735Z" fill="#FFFBF4"/>
<path d="M144.373 253.843C144.373 253.843 125.312 236.815 122.441 222.642C119.57 208.47 127.995 203.176 122.323 196.001C116.651 188.826 119.186 175.95 125.292 172.682C131.398 169.415 133.899 162.283 134.497 152.424C135.095 142.565 142.61 138.897 144.938 141.632C151.348 149.163 148.161 156.864 157.966 161.654C167.771 166.445 171.248 176.366 168.788 184.489C166.328 192.613 177.14 195.205 184.3 207.606C191.46 220.007 186.273 230.375 183.236 238.153C180.198 245.931 188.617 255.302 185.56 264.268C182.504 273.234 161.41 287.994 161.41 287.994C161.41 287.994 151.204 284.223 144.373 253.843Z" fill="#CFC293"/>
<path d="M144.18 155.358C144.18 155.358 150.474 179.628 158.054 210.916C165.633 242.204 166.909 280.793 166.909 280.793C166.909 280.793 171.297 252.788 165.612 226.507C159.927 200.227 144.66 159.403 144.18 155.358Z" fill="#FFFBF4"/>
<path d="M146.931 266.51C144.332 253.175 157.439 247.037 157.987 243.416C158.534 239.795 159.062 232.538 168.182 226.865C177.302 221.192 184.955 225.459 189.608 220.477C194.261 215.494 198.459 211.285 206.225 214.097C213.991 216.909 218.267 214.066 227.559 210.555C236.85 207.045 246.788 214.344 246.788 214.344C251.4 216.827 248.894 222.089 240.614 226.459C228.923 232.629 234.532 239.816 228.724 244.779C222.917 249.742 214.202 248.495 210.205 253.732C206.208 258.968 208.411 266.068 202.648 269.328C196.884 272.588 188.536 270.329 185.611 273.661C182.686 276.993 182.585 284.695 178.988 288.259C175.391 291.822 163.58 295.474 163.58 295.474L160.512 295.509C160.512 295.509 149.531 279.844 146.931 266.51Z" fill="#B9BC7E"/>
<path d="M161.428 290.875C161.428 290.875 157.742 263.245 173.097 246.338C188.452 229.431 218.647 221.46 227.694 218.625C236.741 215.79 236.741 215.79 236.741 215.79C236.741 215.79 199.101 222.832 182.63 234.961C160.009 251.62 157.074 270.202 161.428 290.875Z" fill="#FFFBF4"/>
<path d="M152.411 290.828C152.411 290.828 127.297 283.952 114.111 289.983C100.925 296.014 98.4922 304.302 98.4922 304.302C98.4922 304.302 104.139 306.277 114.878 304.773C125.618 303.268 127.227 296.906 134.715 299.932C142.203 302.958 144.661 305.873 150.965 304.067C157.269 302.261 160.509 295.511 160.509 295.511L152.411 290.828Z" fill="#9A9B82"/>
<path d="M164.776 291.727C164.776 291.727 171.529 283.943 181.324 284.461C191.119 284.979 192.84 288.394 197.639 288.612C202.438 288.83 205.089 287.316 211.64 289.553C218.123 291.767 221.956 294.8 221.956 294.8C221.956 294.8 215.296 304.44 204.927 301.944C194.558 299.448 186.713 297.838 183.321 301.313C179.929 304.788 158.625 298.455 158.625 298.455L164.776 291.727Z" fill="#9A9B82"/>
<path d="M310.139 260.815C310.139 260.815 324.257 269.872 353.292 274.933C382.326 279.994 394.58 271.736 396.178 267.874C397.776 264.011 392.982 261.881 374.07 258.418C355.157 254.955 350.096 250.693 359.419 249.628C368.742 248.563 381.795 256.82 392.983 256.82C404.171 256.82 411.895 250.871 412.161 246.786C412.427 242.702 378.598 241.636 374.336 235.776C370.074 229.916 396.268 236.042 407.545 237.641C418.822 239.239 423.35 230.449 422.551 227.519C421.752 224.589 394.315 223.639 391.651 219.585C388.987 215.532 403.105 216.979 415.359 219.585C427.612 222.191 433.739 213.134 432.141 211.003C430.543 208.872 407.901 207.274 405.503 203.278C403.105 199.282 417.756 200.348 425.215 201.946C432.674 203.544 440.665 196.352 438.001 193.955C435.337 191.558 418.555 190.758 418.023 187.295C417.49 183.832 440.381 185.697 438.525 180.636C436.669 175.575 430.276 170.839 420.42 170.676C410.564 170.514 401.507 180.902 396.18 177.706C390.852 174.509 409.232 166.784 404.438 163.854C399.642 160.924 388.988 162.522 385.259 167.583C381.53 172.644 381.263 181.168 377.268 180.902C373.272 180.636 380.197 168.649 376.734 165.985C373.271 163.321 364.215 168.915 362.351 174.243C360.486 179.57 362.617 190.226 358.888 190.758C355.159 191.291 359.785 173.71 356.539 172.112C353.294 170.514 342.905 180.902 342.639 187.296C342.373 193.689 345.836 203.76 340.242 205.384C334.648 207.008 335.714 187.029 331.452 185.165C327.19 183.3 318.665 195.519 319.997 205.525C321.329 215.532 324.26 223.719 320.264 223.754C316.268 223.789 313.338 211.003 310.142 208.872C306.945 206.741 304.066 212.069 303.242 225.654C302.414 239.239 308.823 257.485 310.139 260.815Z" fill="#D1C795"/>
<path d="M305.583 282.699C305.583 282.699 320.546 244.315 337.952 223.046C355.358 201.777 388.948 188.951 405.133 188.035C405.133 188.035 366.844 195.153 342.227 225.595C317.61 256.037 308.331 297.662 308.331 297.662L301.613 296.341L305.583 282.699Z" fill="#FFFBF4"/>
<path d="M34.4716 339.075C34.4716 339.075 36.6086 331.112 47.0966 327.421C57.5846 323.731 59.1386 333.636 65.7426 333.248C72.3466 332.86 75.4136 345.679 75.4136 345.679H32.1406L34.4716 339.075Z" fill="#9A9B82"/>
<path d="M59.83 345.218C59.222 342.198 58.29 338.794 57.131 335.155C59.03 331.467 64.406 319.755 64.277 305.579C64.12 288.373 52.195 270.328 52.195 270.328C52.195 270.328 49.063 299.768 54.253 326.849C50.662 317.157 46.058 306.644 41.793 297.456C43.608 293.656 46.872 285.478 46.847 275.78C46.812 262.366 37.607 248.239 37.607 248.239C37.607 248.239 35.136 270.087 38.652 290.788C35.509 284.212 32.797 278.806 31.156 275.585C30.867 271.044 29.745 263.083 25.618 255.272C19.351 243.412 4.634 235.183 4.634 235.183C4.634 235.183 13.9 259.01 28.416 276.208C29.729 278.786 31.935 283.176 34.577 288.639C32.561 285.682 29.985 282.536 26.743 279.68C16.679 270.812 0 268.334 0 268.334C0 268.334 18.956 289.374 39.901 299.913C42.076 304.633 44.319 309.658 46.457 314.713C44.038 311.426 41.072 308.027 37.485 304.908C24.502 293.616 3.087 290.577 3.087 290.577C3.087 290.577 26.277 315.985 52.361 329.649C54.519 335.612 56.238 341.17 57.162 345.756L59.83 345.218Z" fill="#B9BC7E"/>
<path d="M402.058 337.094H415.232C415.232 337.094 421.192 326.116 435.62 318.588C450.048 311.06 451.616 301.98 452.244 297.738C452.871 293.496 446.598 295.691 437.188 301.337C427.778 306.983 425.269 320.349 421.191 320.096C417.114 319.843 419.623 304.478 428.405 299.457C437.187 294.437 444.088 282.204 446.283 274.363C448.479 266.522 430.6 272.167 422.131 281.577C413.662 290.987 414.917 313.967 408.644 316.905C402.371 319.843 413.349 300.553 400.646 292.684C395.552 289.529 394.214 298.552 395.783 309.982C397.354 321.411 405.195 326.743 402.058 337.094Z" fill="#9A9B82"/>
<path d="M379.871 343.915C379.871 343.915 403.003 346.434 420.867 346.434C438.731 346.434 445.602 344.831 445.602 344.831C445.602 344.831 441.709 337.502 430.257 334.754C418.806 332.006 417.661 338.876 412.622 334.754C407.583 330.632 398.422 327.654 390.407 329.944C382.39 332.234 379.871 343.915 379.871 343.915Z" fill="#D7CA8C"/>
<path d="M232.586 364.97C308.975 364.97 370.899 359.896 370.899 353.637C370.899 347.378 308.975 342.304 232.586 342.304C156.198 342.304 94.2734 347.378 94.2734 353.637C94.2734 359.896 156.198 364.97 232.586 364.97Z" fill="#E2C9B5"/>
<path d="M361.276 291.104L350.771 302.181C350.771 302.181 350.77 302.192 350.759 302.214L348.784 304.289C348.773 304.3 348.762 304.3 348.762 304.3L348.641 304.432C348.63 304.421 348.607 304.41 348.596 304.399C325.915 290.369 304.036 269.467 298.525 264.077C295.693 261.53 293.037 258.478 290.973 254.834C286.132 246.26 279.589 230.254 275.033 218.53L274.428 221.077L266.216 255.866C269.729 261.256 274.537 269.512 278.654 279.699C280.74 284.87 282.65 290.545 284.121 296.583L236.927 324.346L236.939 325.049L236.301 324.709L235.676 325.071L235.664 324.368L187.438 298.438C188.997 290.797 191.269 283.716 193.729 277.47C193.773 277.371 193.805 277.262 193.849 277.163C197.208 268.732 200.931 261.827 203.774 257.062L194.08 222.064L192.774 217.354L192.071 214.818C187.46 226.268 178.963 246.676 173.035 256.71C170.905 260.311 168.205 263.308 165.306 265.8C159.707 271.08 137.39 291.587 114.446 305.2L112.349 302.906L102.062 291.632L154.362 242.461L172.037 191.929C182.214 170.094 189.843 169.786 189.843 169.786V169.797C191.248 168.611 192.851 167.612 194.651 166.91C195.233 166.679 195.826 166.449 196.429 166.196L196.44 166.185C199.887 164.769 203.751 162.958 207.616 160.685C212.172 157.995 216.739 154.647 220.647 150.508C221.218 146.622 221.425 141.089 221.502 137.499C221.546 135.358 221.547 133.898 221.547 133.898L232.667 135.04L243.733 133.47C243.733 133.47 243.832 136.357 244.095 139.98C244.348 143.24 244.71 147.105 245.259 150.036C247.07 151.814 249.013 153.439 251.022 154.888C257.993 160.015 265.766 163.308 271.87 165.427C273.451 165.976 274.888 166.744 276.194 167.667C277.786 168.062 284.68 170.829 293.21 190.095L309.919 240.945L361.276 291.104Z" fill="#5E4453"/>
<path d="M251.027 154.889C249.238 156.898 243.76 161.212 228.237 164.78C207.247 169.599 196.434 166.196 196.434 166.196L196.445 166.185C199.892 164.769 203.756 162.958 207.621 160.685C212.177 157.995 216.744 154.647 220.652 150.508C221.223 146.622 221.431 141.089 221.508 137.499L244.101 139.98C244.354 143.24 244.716 147.105 245.265 150.036C247.075 151.815 249.018 153.44 251.027 154.889Z" fill="#3F2935"/>
<path d="M262.847 229.941C255.481 233.201 242.608 226.883 231.674 230.407C220.74 233.942 215.328 244.053 213.209 256.996C211.09 269.928 216.502 288.733 216.502 288.733C216.502 288.733 206.732 291.445 193.854 277.162C197.213 268.731 200.935 261.826 203.778 257.061L192.778 217.354L192.075 214.818C192.075 214.818 189.451 201.238 196.038 190.886C196.038 190.886 193.985 201.952 197.839 212.063C201.681 222.174 210.749 222.174 220.212 221.943C229.675 221.712 229.543 218.466 240.236 220.768C258.072 224.609 265.042 222.884 269.202 217.026C271.946 213.163 270.202 226.68 262.847 229.941Z" fill="#3F2935"/>
<path d="M212.088 121.884C212.088 121.884 209.555 116.717 206.221 116.92C202.887 117.123 201.772 124.238 206.468 129.78C211.164 135.323 215.43 132.946 215.43 132.946L212.088 121.884Z" fill="#EA8D78"/>
<path d="M253.899 121.081C253.899 121.081 256.232 115.821 259.571 115.896C262.91 115.971 264.298 123.038 259.818 128.756C255.338 134.475 250.984 132.264 250.984 132.264L253.899 121.081Z" fill="#EA8D78"/>
<path d="M255.398 110.413C255.794 131.059 243.492 149.515 233.691 149.703C221.804 149.931 210.305 130.542 209.936 111.286C209.663 97.0426 218.207 85.3276 232.45 85.0536C246.693 84.7806 255.124 96.1696 255.398 110.413Z" fill="#FFA488"/>
<path d="M215.031 112.317C215.031 112.317 218.375 111.363 221.993 111.099C226.528 110.767 228.2 111.24 228.2 111.24C228.2 111.24 227.327 108.697 223.51 108.77C219.694 108.844 215.031 112.317 215.031 112.317Z" fill="#2F2A00"/>
<path d="M227.972 117.893C227.972 117.893 225.295 114.293 221.852 114.255C218.409 114.217 215.355 118.135 215.355 118.135C215.355 118.135 216.295 119.168 221.186 119.379C226.196 119.596 227.972 117.893 227.972 117.893Z" fill="#EA8D78"/>
<path d="M221.756 119.091C218.511 119.122 215.872 118.306 215.426 118.16L215.378 118.135C215.375 118.137 215.371 118.139 215.367 118.141C215.362 118.139 215.351 118.136 215.351 118.136C215.354 118.138 215.359 118.142 215.362 118.144C214.792 118.511 213.621 118.609 213.621 118.609C214.828 118.985 215.785 118.86 216.213 118.766C217.149 119.402 218.807 120.236 221.776 120.203C226.04 120.156 227.967 117.894 227.967 117.894C227.967 117.894 225.318 119.057 221.756 119.091Z" fill="#2F2A00"/>
<path d="M250.122 111.644C250.122 111.644 246.744 110.819 243.119 110.694C238.574 110.537 236.922 111.073 236.922 111.073C236.922 111.073 237.697 108.498 241.513 108.425C245.329 108.351 250.122 111.644 250.122 111.644Z" fill="#2F2A00"/>
<path d="M237.41 117.713C237.41 117.713 239.947 114.013 243.386 113.843C246.825 113.672 250.027 117.471 250.027 117.471C250.027 117.471 249.127 118.539 244.248 118.938C239.249 119.346 237.41 117.713 237.41 117.713Z" fill="#EA8D78"/>
<path d="M251.773 117.876C251.773 117.876 250.599 117.823 250.016 117.478C250.019 117.476 250.023 117.472 250.027 117.47C250.027 117.47 250.017 117.474 250.012 117.476C250.009 117.474 250.004 117.473 250.001 117.471L249.954 117.498C249.513 117.661 246.907 118.577 243.664 118.671C240.103 118.774 237.41 117.713 237.41 117.713C237.41 117.713 239.423 119.9 243.686 119.783C246.654 119.702 248.279 118.804 249.19 118.133C249.62 118.21 250.581 118.299 251.773 117.876Z" fill="#2F2A00"/>
<path d="M229.738 130.273C229.738 130.273 231.567 131.385 233.064 131.461C234.561 131.537 236.342 130.146 236.342 130.146C236.342 130.146 234.948 130 233.279 129.962C231.609 129.924 229.738 130.273 229.738 130.273Z" fill="#EA8D78"/>
<path d="M233.859 136.672C237.555 136.449 239.902 135.286 239.902 135.286C239.902 135.286 235.947 134.862 234.934 135.06C234.305 135.183 233.866 135.784 233.624 136.222C233.365 135.793 232.904 135.209 232.271 135.111C231.251 134.952 227.316 135.528 227.316 135.528C227.316 135.528 229.707 136.6 233.408 136.681C233.407 136.684 233.401 136.698 233.401 136.698C233.48 136.695 233.555 136.689 233.633 136.685C233.711 136.686 233.786 136.689 233.865 136.689C233.865 136.689 233.861 136.675 233.859 136.672Z" fill="#743F3D"/>
<path d="M228.453 137.104C228.453 137.104 229.231 138.21 232.113 138.911C234.995 139.612 237.084 138.424 238.811 137.322C238.811 137.322 237.251 140.299 233.999 140.7C230.747 141.102 228.566 137.545 228.453 137.104Z" fill="#EA8D78"/>
<path d="M241.587 97.2917C241.587 97.2917 236.634 94.6747 229.965 95.0117C223.296 95.3487 218.115 100.559 216.184 104.247C214.253 107.935 212.292 108.987 212.292 108.987C212.292 108.987 212.903 117.929 211.192 121.74C211.192 121.74 208.882 117.878 206.221 116.921C206.221 116.921 203.943 108.759 205.341 100.074C206.739 91.3887 215.947 82.0327 228.336 80.7517C240.724 79.4707 246.995 85.5047 246.995 85.5047C246.995 85.5047 255.22 90.1447 257.666 98.0257C260.112 105.907 258.014 116.136 258.014 116.136C258.014 116.136 255.897 117.208 254.533 120.907C254.533 120.907 250.57 114.927 251.589 108.232C251.587 108.232 249.965 97.5827 241.587 97.2917Z" fill="#743F3D"/>
<path d="M248.954 89.9496C246.471 90.7356 230.444 82.0616 230.444 82.0616C230.444 82.0616 230.36 80.6576 230.811 78.8456C231.44 76.3416 233.074 73.0426 237.337 71.5026C238.07 71.2406 238.793 71.0526 239.495 70.9266C245.916 69.8376 251.248 74.2366 252.778 78.7206C254.474 83.6966 251.447 89.1746 248.954 89.9496Z" fill="#743F3D"/>
<path d="M228.201 111.241C228.201 111.241 229.755 114.151 230.629 118.569C231.503 122.988 230.775 126.157 230.775 126.157C230.775 126.157 229.92 113.659 223.559 111.01C223.559 111.01 227.047 110.935 228.201 111.241Z" fill="#EA8D78"/>
<path d="M241.587 97.2919C241.587 97.2919 233.675 94.6439 226.939 97.5729C220.203 100.502 220.364 104.777 215.685 105.139L215.082 104.02C215.082 104.02 216.329 104.259 219.179 102.013C222.028 99.7659 228.039 91.6839 241.587 97.2919Z" fill="#743F3D"/>
<path d="M209.406 333.474C209.406 333.474 202.935 334.299 200.679 334.737C200.679 334.737 191.641 333.442 187.844 333.603C184.046 333.764 181.97 338.284 179.825 343.189C177.68 348.094 169.368 353.32 166.431 356.375C163.495 359.429 163.416 363.91 163.48 364.858C163.544 365.806 161.631 368.506 162.637 370.723C163.643 372.94 164.736 372.2 165.671 371.947C166.606 371.694 167.262 370.126 167.262 370.126C167.262 370.126 169.651 370.251 170.668 369.801C171.685 369.352 170.813 369.125 173.088 368.971C175.363 368.818 176.582 368.545 177.972 367.975C179.362 367.405 188.884 357.527 194.039 354.895C199.194 352.262 207.141 352.87 207.141 352.87L209.406 333.474Z" fill="#FFA488"/>
<path d="M355.527 340.186C340.158 348.782 314.7 352.163 285.235 353.952C281.645 354.172 278.001 354.369 274.301 354.545L274.806 367.323C274.806 367.323 272.566 367.301 268.603 367.246C256.45 367.103 228.116 366.741 198.574 366.148C150.798 365.204 112.792 353.348 101.814 342.776C96.5232 337.671 93.3832 329.536 94.5032 321.94C95.3922 315.924 98.9602 310.248 106.238 306.659C107.973 305.803 111.002 304.716 115.097 303.552C127.941 299.874 151.182 295.428 176.815 295.187C177.221 295.154 177.605 295.132 177.979 295.099C181.36 290.027 193.853 277.161 193.853 277.161C193.853 277.161 202.635 284.549 214.645 288.94C220.99 291.256 228.247 292.749 235.58 291.86C256.79 289.302 278.098 277.479 278.098 277.479C282.412 281.772 286.54 291.849 286.54 291.849C307.772 292.047 342.934 298.491 350.498 302.278C350.553 302.311 350.597 302.344 350.641 302.366C355.779 303.749 360.06 306.735 362.991 310.534C369.787 319.327 369.337 332.479 355.527 340.186Z" fill="#E9835B"/>
<path d="M102.06 291.63C102.06 291.63 96.7158 290.814 94.5738 290.855C92.4308 290.896 88.1088 292.265 85.6678 292.679C83.2258 293.093 82.0028 293.178 82.0708 293.544C82.1388 293.91 82.9528 294.813 85.6548 295.19C88.3568 295.567 90.6678 294.849 92.1078 294.821C93.5478 294.793 93.8698 295.645 93.8698 295.645C93.8698 295.645 92.4138 299.531 87.7138 300.356C83.0138 301.181 81.1638 300.482 80.8448 299.814C80.5258 299.147 82.5198 294.576 81.9978 292.872C81.4748 291.167 80.6818 291.305 79.6928 294.019C78.7038 296.733 76.9778 299.338 77.0118 301.113C77.0458 302.888 80.0758 304.423 80.0758 304.423C80.0758 304.423 74.2448 303.739 72.4998 305.364C70.7548 306.99 74.2468 307.045 77.0078 307.299C79.7688 307.552 82.3558 308.36 84.0058 308.144C84.0058 308.144 76.5938 308.041 75.1468 309.233C73.6998 310.424 76.6548 311.225 79.4708 311.171C82.2868 311.117 86.0948 311.718 86.7078 311.706C86.7078 311.706 80.1088 312.506 80.3248 314.156C80.5398 315.805 81.7438 314.68 85.3638 315.039C88.9838 315.398 91.9838 315.341 95.3928 314.295C98.8018 313.25 112.353 302.903 112.353 302.903L102.06 291.63Z" fill="#FFA488"/>
<path d="M330.364 307.8C302.129 311.807 223.087 332.04 223.087 332.04C223.087 332.04 181.447 312.982 153.53 308.514C127.018 304.277 111.55 306.384 115.096 303.552C127.94 299.874 151.181 295.428 176.814 295.187C177.22 295.154 177.604 295.132 177.978 295.099C181.359 290.027 193.852 277.161 193.852 277.161C193.852 277.161 202.634 284.549 214.644 288.94C215.61 293.595 232.264 316.506 244.263 312.74C256.262 308.985 272.015 303.804 279.546 306.395C287.077 308.986 302.369 307.57 312.908 305.198C323.437 302.827 330.364 307.8 330.364 307.8Z" fill="#CC6A4C"/>
<path d="M350.773 302.18C350.773 302.18 350.773 302.191 350.762 302.213C350.663 302.422 350.158 303.443 348.786 304.288C348.775 304.299 348.764 304.299 348.764 304.299C348.709 304.332 348.654 304.365 348.599 304.398C325.918 290.368 304.039 269.466 298.528 264.076C295.696 261.529 293.039 258.477 290.975 254.833C286.134 246.259 279.591 230.253 275.035 218.529L277.659 196.694C277.659 196.694 287.462 238.948 297.815 252.561C308.167 266.172 350.773 302.18 350.773 302.18Z" fill="#3F2935"/>
<path d="M194.084 222.063L192.778 217.353L192.075 214.817C187.464 226.267 178.967 246.675 173.039 256.709C170.909 260.31 168.209 263.307 165.31 265.799C159.711 271.079 137.393 291.586 114.449 305.199L112.352 302.905C112.352 302.905 157.548 264.306 170.821 249.124C184.082 233.941 192.239 200.832 192.239 200.832L194.084 222.063Z" fill="#3F2935"/>
<path d="M355.527 340.186C340.158 348.782 314.7 352.163 285.235 353.952C272.918 351.932 264.124 347.135 264.124 347.135V345.675L223.121 332.051C223.469 332.137 230.207 330.237 230.207 330.237C248.877 334.396 294.883 346.935 318.838 341.448C349.653 334.389 350.828 321.424 356.471 314.969C358.678 312.444 360.994 311.16 362.992 310.534C369.787 319.327 369.337 332.479 355.527 340.186Z" fill="#CC6A4C"/>
<path d="M264.125 347.132C264.125 347.132 270.579 348.083 272.826 348.565C272.826 348.565 281.887 347.447 285.681 347.682C289.475 347.917 291.462 352.477 293.51 357.423C295.559 362.369 303.767 367.757 306.643 370.868C309.519 373.979 309.51 378.46 309.428 379.407C309.346 380.353 311.205 383.09 310.156 385.287C309.106 387.484 308.028 386.723 307.098 386.451C306.168 386.179 305.543 384.599 305.543 384.599C305.543 384.599 303.152 384.677 302.144 384.208C301.136 383.739 302.012 383.529 299.741 383.331C297.47 383.133 296.256 382.837 294.877 382.24C293.499 381.643 284.171 371.581 279.069 368.848C273.967 366.115 266.009 366.567 266.009 366.567L264.125 347.132Z" fill="#FFA488"/>
<path d="M361.281 291.106C361.281 291.106 366.639 290.392 368.781 290.474C370.923 290.556 375.217 292.007 377.651 292.468C380.084 292.929 381.306 293.037 381.23 293.402C381.155 293.767 380.324 294.654 377.616 294.979C374.908 295.304 372.61 294.542 371.172 294.487C369.733 294.432 369.394 295.277 369.394 295.277C369.394 295.277 370.776 299.19 375.459 300.105C380.142 301.02 382.006 300.356 382.338 299.694C382.67 299.033 380.763 294.425 381.318 292.731C381.873 291.037 382.664 291.189 383.601 293.921C384.538 296.653 386.214 299.291 386.146 301.065C386.078 302.839 383.019 304.315 383.019 304.315C383.019 304.315 388.862 303.742 390.575 305.401C392.289 307.06 388.796 307.049 386.031 307.249C383.266 307.449 380.663 308.208 379.018 307.961C379.018 307.961 386.431 308 387.855 309.219C389.279 310.438 386.309 311.182 383.495 311.074C380.68 310.966 376.861 311.494 376.249 311.47C376.249 311.47 382.831 312.396 382.585 314.041C382.338 315.686 381.157 314.538 377.53 314.828C373.904 315.118 370.906 315.003 367.517 313.893C364.128 312.783 350.777 302.18 350.777 302.18L361.281 291.106Z" fill="#FFA488"/>
<path d="M268.603 367.246C256.45 367.103 228.116 366.741 198.574 366.148C150.798 365.204 112.792 353.348 101.814 342.776C96.5232 337.671 93.3832 329.536 94.5032 321.94C98.5432 325.08 106.348 330.547 121.234 337.99C145.693 350.231 190.857 356.817 226.623 360.265C262.378 363.712 265.595 362.197 265.595 362.197L268.603 367.246Z" fill="#CC6A4C"/>
<path d="M243.528 84.3878C238.699 82.0308 231.063 80.5847 231.063 80.5847C230.937 79.9767 230.854 79.3907 230.812 78.8457C231.442 76.3417 233.075 73.0428 237.338 71.5028C238.071 71.2408 238.795 71.0528 239.497 70.9268C238.691 71.7548 237.851 73.2937 238.585 75.8607C239.83 80.2187 248.346 86.7448 243.528 84.3878Z" fill="#603030"/>
<path d="M239.03 93.3679C239.03 93.3679 230.13 90.0009 221.617 93.3679C213.104 96.7349 211.919 105.826 209.93 106.724C209.93 106.724 211.654 94.5279 220.797 91.8719C229.939 89.2159 239.03 93.3679 239.03 93.3679Z" fill="#603030"/>
<path d="M245.765 87.7568L242.398 95.3478C242.398 95.3478 246.999 93.2558 245.765 87.7568Z" fill="#603030"/>
</svg>
